# xmcd
#
# Track frame offsets: 
#        150
#        16542
#        35127
#        47647
#        63342
#        79412
#        95735
#        114252
#        131197
#        146740
#        165117
#
# Disc length: 2436 seconds
#
# Revision: 12
# Processed by: cddbd v1.5.2PL0 Copyright (c) Steve Scherf et al.
# Submitted via: ExactAudioCopy v0.95b4
#
DISCID=8e09820b
DTITLE=Μελίνα Κανά (Θανάσης Παπακωνσταντίνου) - Της αγάπης γερακάρης
DYEAR=1996
DGENRE=
TTITLE0=Στη φωτιά
TTITLE1=Φεϊρούζ
TTITLE2=Μαλαματένια μου ζωή
TTITLE3=Όταν τραγουδάω
TTITLE4=Τρυγητής
TTITLE5=Αποσπερίτης
TTITLE6=Έρημα κορμιά
TTITLE7=Φιλί αμέθυστο
TTITLE8=Βάρδια
TTITLE9=Σώμα που χορεύεις
TTITLE10=Παραβολή του ασώτου
EXTD=Songs by Thanasi Papakonstantinou YEAR: 1996
EXTT0=
EXTT1=
EXTT2=
EXTT3=
EXTT4=
EXTT5=
EXTT6=
EXTT7=
EXTT8=Lyrics by Giσrgos Athanasσpoulou
EXTT9=
EXTT10=
PLAYORDER=
